<svg width="144" height="144" viewBox="0 0 144 144" fill="none" xmlns="http://www.w3.org/2000/svg">
<path d="M12.6462 37.7321L72 3.4641L131.354 37.7321V106.268L72 140.536L12.6462 106.268V37.7321Z" fill="#F9F9F3" stroke="#6667AB" stroke-width="6"/>
<path d="M40.375 123C37.5219 123 35.0794 121.909 33.0477 119.727C31.0159 117.545 30 114.921 30 111.857V56.1429C30 53.0786 31.0159 50.4554 33.0477 48.2732C35.0794 46.0911 37.5219 45 40.375 45H45.5625V33.8571C45.5625 26.15 48.0914 19.5804 53.1492 14.1482C58.207 8.71607 64.324 6 71.5 6C78.676 6 84.793 8.71607 89.8508 14.1482C94.9086 19.5804 97.4375 26.15 97.4375 33.8571V45H102.625C105.478 45 107.921 46.0911 109.952 48.2732C111.984 50.4554 113 53.0786 113 56.1429V111.857C113 114.921 111.984 117.545 109.952 119.727C107.921 121.909 105.478 123 102.625 123H40.375ZM40.375 111.857H102.625V56.1429H40.375V111.857ZM55.9375 45H87.0625V33.8571C87.0625 29.2143 85.5495 25.2679 82.5234 22.0179C79.4974 18.7679 75.8229 17.1429 71.5 17.1429C67.1771 17.1429 63.5026 18.7679 60.4766 22.0179C57.4505 25.2679 55.9375 29.2143 55.9375 33.8571V45Z" fill="#6667AB"/>
<rect x="40" y="56" width="63" height="56" fill="#F9F9F3"/>
<rect x="45.5" y="76.5" width="52" height="15" fill="#F2F2F2" stroke="black"/>
<path d="M53.3341 88.434L51.6781 87.282L52.4161 86.22C52.5961 85.956 52.8181 85.698 53.0821 85.446C53.3581 85.194 53.6281 84.96 53.8921 84.744C54.1681 84.528 54.4021 84.348 54.5941 84.204L54.5581 84.096C54.3061 84.096 54.0061 84.084 53.6581 84.06C53.3221 84.036 52.9741 83.994 52.6141 83.934C52.2661 83.862 51.9481 83.778 51.6601 83.682L50.4541 83.25L51.1561 81.342L52.3441 81.774C52.6321 81.87 52.9321 82.014 53.2441 82.206C53.5561 82.398 53.8501 82.596 54.1261 82.8C54.4141 83.004 54.6541 83.19 54.8461 83.358L54.9361 83.286C54.8641 83.034 54.7741 82.74 54.6661 82.404C54.5701 82.068 54.4861 81.714 54.4141 81.342C54.3421 80.97 54.3061 80.628 54.3061 80.316V79.02H56.3221V80.316C56.3221 80.628 56.2861 80.97 56.2141 81.342C56.1421 81.714 56.0581 82.068 55.9621 82.404C55.8661 82.74 55.7701 83.034 55.6741 83.286L55.7641 83.34C55.9561 83.172 56.1901 82.992 56.4661 82.8C56.7541 82.596 57.0541 82.398 57.3661 82.206C57.6781 82.014 57.9781 81.87 58.2661 81.774L59.4721 81.342L60.1741 83.25L58.9501 83.682C58.6741 83.778 58.3561 83.862 57.9961 83.934C57.6481 83.994 57.3061 84.036 56.9701 84.06C56.6341 84.084 56.3341 84.096 56.0701 84.096L56.0341 84.204C56.2261 84.348 56.4541 84.534 56.7181 84.762C56.9941 84.978 57.2641 85.212 57.5281 85.464C57.8041 85.716 58.0261 85.968 58.1941 86.22L58.9321 87.282L57.2761 88.434L56.5381 87.372C56.3581 87.12 56.1901 86.826 56.0341 86.49C55.8901 86.142 55.7581 85.8 55.6381 85.464C55.5301 85.128 55.4401 84.846 55.3681 84.618H55.2601C55.1881 84.846 55.0921 85.128 54.9721 85.464C54.8641 85.8 54.7321 86.142 54.5761 86.49C54.4321 86.826 54.2641 87.12 54.0721 87.372L53.3341 88.434ZM64.127 88.434L62.471 87.282L63.209 86.22C63.389 85.956 63.611 85.698 63.875 85.446C64.151 85.194 64.421 84.96 64.685 84.744C64.961 84.528 65.195 84.348 65.387 84.204L65.351 84.096C65.099 84.096 64.799 84.084 64.451 84.06C64.115 84.036 63.767 83.994 63.407 83.934C63.059 83.862 62.741 83.778 62.453 83.682L61.247 83.25L61.949 81.342L63.137 81.774C63.425 81.87 63.725 82.014 64.037 82.206C64.349 82.398 64.643 82.596 64.919 82.8C65.207 83.004 65.447 83.19 65.639 83.358L65.729 83.286C65.657 83.034 65.567 82.74 65.459 82.404C65.363 82.068 65.279 81.714 65.207 81.342C65.135 80.97 65.099 80.628 65.099 80.316V79.02H67.115V80.316C67.115 80.628 67.079 80.97 67.007 81.342C66.935 81.714 66.851 82.068 66.755 82.404C66.659 82.74 66.563 83.034 66.467 83.286L66.557 83.34C66.749 83.172 66.983 82.992 67.259 82.8C67.547 82.596 67.847 82.398 68.159 82.206C68.471 82.014 68.771 81.87 69.059 81.774L70.265 81.342L70.967 83.25L69.743 83.682C69.467 83.778 69.149 83.862 68.789 83.934C68.441 83.994 68.099 84.036 67.763 84.06C67.427 84.084 67.127 84.096 66.863 84.096L66.827 84.204C67.019 84.348 67.247 84.534 67.511 84.762C67.787 84.978 68.057 85.212 68.321 85.464C68.597 85.716 68.819 85.968 68.987 86.22L69.725 87.282L68.069 88.434L67.331 87.372C67.151 87.12 66.983 86.826 66.827 86.49C66.683 86.142 66.551 85.8 66.431 85.464C66.323 85.128 66.233 84.846 66.161 84.618H66.053C65.981 84.846 65.885 85.128 65.765 85.464C65.657 85.8 65.525 86.142 65.369 86.49C65.225 86.826 65.057 87.12 64.865 87.372L64.127 88.434ZM74.92 88.434L73.264 87.282L74.002 86.22C74.182 85.956 74.404 85.698 74.668 85.446C74.944 85.194 75.214 84.96 75.478 84.744C75.754 84.528 75.988 84.348 76.18 84.204L76.144 84.096C75.892 84.096 75.592 84.084 75.244 84.06C74.908 84.036 74.56 83.994 74.2 83.934C73.852 83.862 73.534 83.778 73.246 83.682L72.04 83.25L72.742 81.342L73.93 81.774C74.218 81.87 74.518 82.014 74.83 82.206C75.142 82.398 75.436 82.596 75.712 82.8C76 83.004 76.24 83.19 76.432 83.358L76.522 83.286C76.45 83.034 76.36 82.74 76.252 82.404C76.156 82.068 76.072 81.714 76 81.342C75.928 80.97 75.892 80.628 75.892 80.316V79.02H77.908V80.316C77.908 80.628 77.872 80.97 77.8 81.342C77.728 81.714 77.644 82.068 77.548 82.404C77.452 82.74 77.356 83.034 77.26 83.286L77.35 83.34C77.542 83.172 77.776 82.992 78.052 82.8C78.34 82.596 78.64 82.398 78.952 82.206C79.264 82.014 79.564 81.87 79.852 81.774L81.058 81.342L81.76 83.25L80.536 83.682C80.26 83.778 79.942 83.862 79.582 83.934C79.234 83.994 78.892 84.036 78.556 84.06C78.22 84.084 77.92 84.096 77.656 84.096L77.62 84.204C77.812 84.348 78.04 84.534 78.304 84.762C78.58 84.978 78.85 85.212 79.114 85.464C79.39 85.716 79.612 85.968 79.78 86.22L80.518 87.282L78.862 88.434L78.124 87.372C77.944 87.12 77.776 86.826 77.62 86.49C77.476 86.142 77.344 85.8 77.224 85.464C77.116 85.128 77.026 84.846 76.954 84.618H76.846C76.774 84.846 76.678 85.128 76.558 85.464C76.45 85.8 76.318 86.142 76.162 86.49C76.018 86.826 75.85 87.12 75.658 87.372L74.92 88.434ZM85.713 88.434L84.057 87.282L84.795 86.22C84.975 85.956 85.197 85.698 85.461 85.446C85.737 85.194 86.007 84.96 86.271 84.744C86.547 84.528 86.781 84.348 86.973 84.204L86.937 84.096C86.685 84.096 86.385 84.084 86.037 84.06C85.701 84.036 85.353 83.994 84.993 83.934C84.645 83.862 84.327 83.778 84.039 83.682L82.833 83.25L83.535 81.342L84.723 81.774C85.011 81.87 85.311 82.014 85.623 82.206C85.935 82.398 86.229 82.596 86.505 82.8C86.793 83.004 87.033 83.19 87.225 83.358L87.315 83.286C87.243 83.034 87.153 82.74 87.045 82.404C86.949 82.068 86.865 81.714 86.793 81.342C86.721 80.97 86.685 80.628 86.685 80.316V79.02H88.701V80.316C88.701 80.628 88.665 80.97 88.593 81.342C88.521 81.714 88.437 82.068 88.341 82.404C88.245 82.74 88.149 83.034 88.053 83.286L88.143 83.34C88.335 83.172 88.569 82.992 88.845 82.8C89.133 82.596 89.433 82.398 89.745 82.206C90.057 82.014 90.357 81.87 90.645 81.774L91.851 81.342L92.553 83.25L91.329 83.682C91.053 83.778 90.735 83.862 90.375 83.934C90.027 83.994 89.685 84.036 89.349 84.06C89.013 84.084 88.713 84.096 88.449 84.096L88.413 84.204C88.605 84.348 88.833 84.534 89.097 84.762C89.373 84.978 89.643 85.212 89.907 85.464C90.183 85.716 90.405 85.968 90.573 86.22L91.311 87.282L89.655 88.434L88.917 87.372C88.737 87.12 88.569 86.826 88.413 86.49C88.269 86.142 88.137 85.8 88.017 85.464C87.909 85.128 87.819 84.846 87.747 84.618H87.639C87.567 84.846 87.471 85.128 87.351 85.464C87.243 85.8 87.111 86.142 86.955 86.49C86.811 86.826 86.643 87.12 86.451 87.372L85.713 88.434Z" fill="black"/>
</svg>
